<svg xmlns="http://www.w3.org/2000/svg" width="304.505" height="332.779" viewBox="0 0 304.505 332.779">
  <path id="Path_1136" data-name="Path 1136" d="M515.548,321.368c1.632-.143,2.354.006,2.821-.275,37.88-22.761,63.3-54.91,73.164-98.394a71.632,71.632,0,0,0-.737-33.539c-6.059-24.01-25.986-40.548-50.664-41.983-12.777-.743-25.119.556-36.358,7.6-.884,5.968-1.378,11.906-2.7,17.653-2.086,9.066-6.869,16.48-15.218,21.139-6.282,3.507-12.311,3.612-15.735.109-4.32-4.42-4.248-10.084-1.66-14.8a123.9,123.9,0,0,1,13.029-18.55c3.1-3.788,7.257-6.716,10.861-9.958-3.494-23.267-25.532-33.272-52.06-23.525-.872,3.259-1.59,6.8-2.765,10.192-4.228,12.193-11.724,21.569-24.225,25.9-4.7,1.625-9.894,2.216-13.965-2-3.143-3.255-3.127-9.13.229-14.865,5.33-9.108,13.343-15.514,22.118-21.044,3.056-1.925,6.243-3.643,9.231-5.376-4.058-36.147-36.515-61.71-68.451-47.277.306-2.633-.074-4.915.886-6.167,1.066-1.386,3.273-2.27,5.126-2.617,17.459-3.267,33.77-1.254,47.272,11.511a82.917,82.917,0,0,1,21.46,34.2c.636,1.867,1.313,3.719,2.018,5.562.1.271.45.446,1.165,1.113,1.791-.173,4.066-.279,6.3-.63,27.63-4.343,42.114,3.116,55,28.907,2.581-.834,5.3-1.677,7.986-2.586,15.9-5.363,31.86-5.719,47.838-.479,26.28,8.614,43.225,31.234,44.937,59.68a104.442,104.442,0,0,1-7.2,44.8C581.6,280.564,559.235,308,525.924,325.943q-2.627,1.416-5.2,2.914c-.235.136-.326.522-1.136,1.906,6.976,1.644,13.641.993,20.235.719,6.487-.273,12.963-.81,19.987-1.266-.6,5.4-3.435,7.524-6.984,8.674-4.081,1.322-8.281,2.945-12.48,3.1-11.247.411-22.552.632-33.772-.074-8.93-.564-11.383-5.378-7.369-12.61q12.778-23.032,25.852-45.9c1.361-2.389,3.3-4.448,5.506-7.352,3.932,4.508,2.189,7.813.758,10.97C526.256,298.184,521.1,309.3,515.548,321.368ZM405.7,154.719c14.213-1.914,23.153-11.016,23.675-23.818C419.812,137.241,410.687,142.879,405.7,154.719ZM475.471,186.8c12.2-2.792,17.9-11.1,16.646-23.711C484.275,169.59,477.377,175.889,475.471,186.8Z" transform="matrix(0.966, -0.259, 0.259, 0.966, -366.216, 95.885)" fill="#fff"/>
</svg>
