<svg xmlns="http://www.w3.org/2000/svg" width="243.712" height="235.158" viewBox="0 0 243.712 235.158">
  <path id="Path_1137" data-name="Path 1137" d="M210.859,273.988c-8.318-1.862-16.634-3.728-25.794-5.779a11.34,11.34,0,0,0,7.96,10.173c11.748,3.876,23.61,7.643,35.693,10.193,6.925,1.458,10.559-3.374,8.471-10.093-3.486-11.213-7.55-22.249-11.383-33.354-.224-.649-.4-1.525-.893-1.831-1.568-.984-3.275-1.752-4.927-2.6-.7,1.426-2.131,2.949-1.959,4.263.576,4.431,1.715,8.79,2.649,13.174a15.218,15.218,0,0,1,.1,7.99c-2.647-2.4-5.406-4.694-7.926-7.22-51.235-51.375-62.231-128.369-27.295-192.288,4.465-8.171,9.942-15.788,14.9-23.692,1.728-2.755,3.311-5.6,4.962-8.4l-1.536-1.747c-1.963.723-4.48.912-5.792,2.267a139.435,139.435,0,0,0-12.926,14.82c-38.838,53.58-40.35,127.994-3.331,185.562,7.06,10.978,16.142,20.659,24.361,30.884,1.689,2.105,3.689,3.961,5.546,5.932Q211.3,273.114,210.859,273.988Z" transform="matrix(0.682, 0.731, -0.731, 0.682, 105.516, -135.727)" fill="#fff"/>
</svg>
