<svg xmlns="http://www.w3.org/2000/svg" width="216.24" height="257.91" viewBox="0 0 216.24 257.91">
  <path id="Path_1138" data-name="Path 1138" d="M246.235,388.427c-7.065,4.531-12.571,8.323-18.342,11.661-3.358,1.944-7.25,4.1-10.906-1.8,10.463-8.153,20.1-17.018,31.567-23.448,4.754-2.665,8.113-1.429,11.347,3.093a32.886,32.886,0,0,1,2.9,5.34q6.606,14.269,13.1,28.586c1.427,3.158,2.766,6.746-1.164,8.918-3.529,1.95-6.74.091-8.791-2.88a104.291,104.291,0,0,1-5.973-10.56c-1.358-2.559-2.536-5.212-5.07-7.47,0,1.294.006,2.587,0,3.879-.074,14.176-3.413,19.272-16.493,24.635a69.337,69.337,0,0,1-32.75,5.269c-2.7-.236-5.4-.51-8.1-.6-11.108-.384-14.9,4.058-11.931,14.861,1.512,5.5,4.181,10.689,6.424,15.978,6.744,15.9,3.662,25.4-11.564,33.745a86.3,86.3,0,0,1-36.658,10.921,69.038,69.038,0,0,0-12.061,1.36c-6.259,1.507-7.961,4.615-5.07,10.432,2.994,6.017,7,11.543,10.7,17.2,2.587,3.961,5.774,7.571,8.026,11.7,4.716,8.652,5.313,17.638-.822,25.828a150.237,150.237,0,0,1-15.342,17.448c-3.66,3.565-8.467,5.572-14.863,2.334,1.762-1.923,3.2-3.464,4.607-5.03,5.4-6,11.06-11.8,16.111-18.087,4.889-6.082,4.088-12.637-.3-18.757-3.744-5.224-7.948-10.132-11.522-15.464-3.186-4.756-6.447-9.645-8.513-14.931-4.448-11.382.862-21.224,12.812-24a101.742,101.742,0,0,1,17.1-1.973,72.024,72.024,0,0,0,31.7-9.789c8.108-4.609,9.065-8.125,5.7-16.718-2.709-6.911-6.11-13.649-7.893-20.792a31.736,31.736,0,0,1,.32-14.874c2.136-8.458,8.416-12.894,17.151-13.037a79.446,79.446,0,0,1,14.142,1.052c10.815,1.781,20.815-1,30.645-4.9,4.7-1.868,7.68-4.765,7.615-10.611C244.019,401.357,245.318,395.762,246.235,388.427Z" transform="matrix(-0.966, 0.259, -0.259, -0.966, 422.268, 546.852)" fill="#fff"/>
</svg>
