<svg xmlns="http://www.w3.org/2000/svg" width="262.358" height="42.897" viewBox="0 0 262.358 42.897">
  <g id="Group_174" data-name="Group 174" transform="translate(-134.479 -125.648)">
    <path id="Path_967" data-name="Path 967" d="M177.376,125.648a43.06,43.06,0,0,1-8.007,25.335c-12.184,16.719-32.325,17.5-34.891,17.562a42.464,42.464,0,0,0,28.6-42.9Z" transform="translate(0 0)" fill="#80057c"/>
    <path id="Path_968" data-name="Path 968" d="M277.042,168.545H262.715a71.694,71.694,0,0,0,8.473-14.638,72.7,72.7,0,0,0,5.854-28.259v42.9Z" transform="translate(-99.665 0)" fill="#2852a3"/>
    <path id="Path_969" data-name="Path 969" d="M670.658,161.1h-8.3q-3.954,0-5.553-1.368t-1.6-4.828V137.639h15.455v4.086H659.783v5.5H667.4l-.33,4.086h-7.283v3.262a2.4,2.4,0,0,0,.626,1.911,3.627,3.627,0,0,0,2.274.527h7.975Z" transform="translate(-404.709 -9.319)" fill="#070231"/>
    <path id="Path_970" data-name="Path 970" d="M759.546,161.1h-6.986q-3.954,0-5.717-1.532t-1.763-4.993V137.639h4.581v16.938a2.4,2.4,0,0,0,.626,1.911,3.628,3.628,0,0,0,2.274.527h6.986Z" transform="translate(-474.561 -9.319)" fill="#070231"/>
    <path id="Path_971" data-name="Path 971" d="M845.973,161.1h-8.3q-3.955,0-5.553-1.368t-1.6-4.828V137.639h15.455v4.086H835.1v5.5h7.612l-.329,4.086H835.1v3.262a2.4,2.4,0,0,0,.626,1.911,3.627,3.627,0,0,0,2.274.527h7.975Z" transform="translate(-540.964 -9.319)" fill="#070231"/>
    <path id="Path_972" data-name="Path 972" d="M1149.678,137.639V158.73a2.777,2.777,0,0,1-.659,1.862,1.982,1.982,0,0,1-1.549.774q-2.274,0-3.724-2.636l-8.107-12.687V161.1h-4.58V137.639h4.416L1145.1,153V137.639Z" transform="translate(-774.546 -9.319)" fill="#070231"/>
    <path id="Path_973" data-name="Path 973" d="M570.532,142.251a3.626,3.626,0,0,1,2.274-.527h7.976v-4.087h-8.3q-3.954,0-5.553,1.369a4.868,4.868,0,0,0-1.483,3.118,11.667,11.667,0,0,0-.116,1.709V155.3h.007q.084,3.143,1.591,4.432,1.6,1.368,5.553,1.369h8.3v-4.088h-7.976a3.624,3.624,0,0,1-2.274-.527,2.4,2.4,0,0,1-.625-1.912V144.163A2.4,2.4,0,0,1,570.532,142.251Z" transform="translate(-334.856 -9.318)" fill="#070231"/>
    <path id="Path_974" data-name="Path 974" d="M480.655,142.251a3.627,3.627,0,0,1,2.274-.527H490.9v-4.087h-8.3q-3.955,0-5.553,1.369a4.868,4.868,0,0,0-1.483,3.118,11.662,11.662,0,0,0-.116,1.709V155.3h.007q.084,3.143,1.591,4.432,1.6,1.368,5.553,1.369h8.3v-4.088h-7.975a3.625,3.625,0,0,1-2.274-.527,2.406,2.406,0,0,1-.625-1.912V144.163A2.406,2.406,0,0,1,480.655,142.251Z" transform="translate(-265.003 -9.318)" fill="#070231"/>
    <path id="Path_975" data-name="Path 975" d="M929.591,152.411h-1.312l-.006-.011h-3.3v8.7H920.4V148.578h8.9a3.119,3.119,0,0,0,2.39-1.005,3.523,3.523,0,0,0,.94-2.5v-.042a3.291,3.291,0,0,0-.906-2.379,3.244,3.244,0,0,0-2.423-.925h-8.9v-4.086h9.194a8.454,8.454,0,0,1,3.4.642,6.573,6.573,0,0,1,2.156,1.484,7.1,7.1,0,0,1,1.016,1.325,7.689,7.689,0,0,1,1.042,3.939c0,.04,0,.083,0,.125a6.931,6.931,0,0,1-1.071,3.858.1.1,0,0,1-.017.025q-.071.11-.149.219a8.037,8.037,0,0,1-2.978,2.517h0A8.492,8.492,0,0,1,929.591,152.411Z" transform="translate(-610.818 -9.318)" fill="#070231"/>
    <path id="Path_976" data-name="Path 976" d="M967.605,213.67H962.3l-4.013-7.627h.752a9.54,9.54,0,0,0,3.916-.768Z" transform="translate(-640.266 -61.886)" fill="#070231"/>
    <g id="Group_73" data-name="Group 73" transform="translate(379.701 128.583)">
      <path id="Path_977" data-name="Path 977" d="M1252.27,142.908h-6.294v19.377H1241.4V142.908h-6.261v-4.086h17.136Z" transform="translate(-1235.134 -138.822)" fill="#070231"/>
    </g>
    <path id="Path_978" data-name="Path 978" d="M385.049,161.1l-7.513-21.486a3.341,3.341,0,0,0-.972-1.582,2.383,2.383,0,0,0-1.433-.4c-.034,0-.066,0-.1,0s-.065,0-.1,0a2.382,2.382,0,0,0-1.433.4,3.341,3.341,0,0,0-.972,1.582L365.013,161.1h4.779l5.239-16.883,5.24,16.883Z" transform="translate(-179.172 -9.319)" fill="#070231"/>
    <path id="Path_979" data-name="Path 979" d="M1033.145,139.616a3.338,3.338,0,0,0-.972-1.582,2.383,2.383,0,0,0-1.433-.4h0c-.034,0-.066,0-.1,0s-.065,0-.1,0a2.383,2.383,0,0,0-1.434.4,3.343,3.343,0,0,0-.972,1.582l-7.513,21.486h4.778l5.24-16.883,5.239,16.883h4.779Z" transform="translate(-688.714 -9.319)" fill="#070231"/>
    <g id="Group_74" data-name="Group 74" transform="translate(185.756 157.97)">
      <path id="Path_980" data-name="Path 980" d="M364.631,271.294h5.674v.893h-2.351v6.757h-.973v-6.757h-2.351Z" transform="translate(-364.631 -271.167)" fill="#736c6b"/>
      <path id="Path_981" data-name="Path 981" d="M411.839,278.943v-7.649h.973v7.649Zm.567-6.757v-.893h4.053v.893Zm0,3.187v-.892h3.486v.892Zm0,3.57v-.893h4.174v.893Z" transform="translate(-401.321 -271.167)" fill="#736c6b"/>
      <path id="Path_982" data-name="Path 982" d="M453.953,274.674a4.7,4.7,0,0,1,.431-2.077,3.2,3.2,0,0,1,1.256-1.381,3.829,3.829,0,0,1,2-.494,4.209,4.209,0,0,1,.917.09,2.9,2.9,0,0,1,.7.25v.977h-.081a2.346,2.346,0,0,0-.694-.287,3.564,3.564,0,0,0-.846-.1,2.9,2.9,0,0,0-1.413.33,2.213,2.213,0,0,0-.932,1,4.5,4.5,0,0,0,0,3.379,2.212,2.212,0,0,0,.932,1,2.9,2.9,0,0,0,1.413.329,3.564,3.564,0,0,0,.846-.1,2.346,2.346,0,0,0,.694-.287h.081v.977a2.876,2.876,0,0,1-.7.25,4.209,4.209,0,0,1-.917.09,3.966,3.966,0,0,1-2-.473,3.069,3.069,0,0,1-1.256-1.36A4.805,4.805,0,0,1,453.953,274.674Z" transform="translate(-434.052 -270.722)" fill="#736c6b"/>
      <path id="Path_983" data-name="Path 983" d="M502.07,278.943v-7.649h.973v7.649Zm.567-3.527v-.892h4.377v.892Zm3.972,3.527v-7.649h.973v7.649Z" transform="translate(-471.449 -271.167)" fill="#736c6b"/>
      <path id="Path_984" data-name="Path 984" d="M552.369,278.943v-7.649h.81l4.2,4.643v1.434l-4.3-4.749.263-.117v6.438Zm4.539,0v-7.649h.973v7.649Z" transform="translate(-510.542 -271.167)" fill="#736c6b"/>
      <path id="Path_985" data-name="Path 985" d="M600.85,274.674a4.887,4.887,0,0,1,.41-2.061,3.279,3.279,0,0,1,5.988,0,5.381,5.381,0,0,1,0,4.122,3.276,3.276,0,0,1-5.988,0A4.887,4.887,0,0,1,600.85,274.674Zm1.013,0a4.13,4.13,0,0,0,.294,1.652,2.224,2.224,0,0,0,.831,1.02,2.495,2.495,0,0,0,2.533,0,2.227,2.227,0,0,0,.831-1.02,4.79,4.79,0,0,0,0-3.3,2.229,2.229,0,0,0-.831-1.02,2.5,2.5,0,0,0-2.533,0,2.227,2.227,0,0,0-.831,1.02A4.132,4.132,0,0,0,601.863,274.674Z" transform="translate(-548.221 -270.722)" fill="#736c6b"/>
      <path id="Path_986" data-name="Path 986" d="M655.151,278.943v-7.649h.973v6.757h3.12v.893Z" transform="translate(-590.424 -271.167)" fill="#736c6b"/>
      <path id="Path_987" data-name="Path 987" d="M692.9,274.674a4.885,4.885,0,0,1,.41-2.061,3.279,3.279,0,0,1,5.988,0,5.381,5.381,0,0,1,0,4.122,3.276,3.276,0,0,1-5.988,0A4.885,4.885,0,0,1,692.9,274.674Zm1.013,0a4.128,4.128,0,0,0,.294,1.652,2.224,2.224,0,0,0,.831,1.02,2.495,2.495,0,0,0,2.533,0,2.227,2.227,0,0,0,.831-1.02,4.791,4.791,0,0,0,0-3.3,2.229,2.229,0,0,0-.831-1.02,2.495,2.495,0,0,0-2.533,0,2.227,2.227,0,0,0-.831,1.02A4.13,4.13,0,0,0,693.913,274.674Z" transform="translate(-619.763 -270.722)" fill="#736c6b"/>
      <path id="Path_988" data-name="Path 988" d="M745.382,274.674a4.568,4.568,0,0,1,.446-2.077,3.265,3.265,0,0,1,1.287-1.381,3.953,3.953,0,0,1,2.037-.494,4.736,4.736,0,0,1,.973.09,2.857,2.857,0,0,1,.729.25v.977h-.081a3.37,3.37,0,0,0-.689-.266,3.45,3.45,0,0,0-.932-.117,2.751,2.751,0,0,0-2.016.728,3.1,3.1,0,0,0-.74,2.289,4.021,4.021,0,0,0,.324,1.737,2.155,2.155,0,0,0,.922,1,2.953,2.953,0,0,0,1.429.324,2.921,2.921,0,0,0,.588-.058q.284-.059.527-.133l-.223.467v-3.379h.973v3.57a3.12,3.12,0,0,1-.826.308,4.473,4.473,0,0,1-1.039.117,3.927,3.927,0,0,1-2.057-.494,3.052,3.052,0,0,1-1.226-1.381A4.96,4.96,0,0,1,745.382,274.674Z" transform="translate(-660.552 -270.722)" fill="#736c6b"/>
      <path id="Path_989" data-name="Path 989" d="M793.686,278.943v-3.187l-2.553-4.377v-.085h1.094l2.148,3.8h-.385l2.128-3.8h1.054v.085l-2.513,4.314v3.251Z" transform="translate(-696.11 -271.167)" fill="#736c6b"/>
      <path id="Path_990" data-name="Path 990" d="M838.34,281.941v-.85h4.945v.85Zm2.067,2.167v-5.184h.811v5.184Z" transform="translate(-732.799 -277.097)" fill="#80057c"/>
      <path id="Path_991" data-name="Path 991" d="M882.819,274.674a4.7,4.7,0,0,1,.431-2.077,3.2,3.2,0,0,1,1.256-1.381,3.829,3.829,0,0,1,2-.494,4.211,4.211,0,0,1,.917.09,2.89,2.89,0,0,1,.7.25v.977h-.081a2.35,2.35,0,0,0-.694-.287,3.563,3.563,0,0,0-.846-.1,2.9,2.9,0,0,0-1.413.33,2.213,2.213,0,0,0-.932,1,4.5,4.5,0,0,0,0,3.379,2.212,2.212,0,0,0,.932,1,2.9,2.9,0,0,0,1.413.329,3.563,3.563,0,0,0,.846-.1,2.35,2.35,0,0,0,.694-.287h.081v.977a2.87,2.87,0,0,1-.7.25,4.211,4.211,0,0,1-.917.09,3.966,3.966,0,0,1-2-.473,3.067,3.067,0,0,1-1.256-1.36A4.806,4.806,0,0,1,882.819,274.674Z" transform="translate(-767.369 -270.722)" fill="#736c6b"/>
      <path id="Path_992" data-name="Path 992" d="M927.843,274.674a4.884,4.884,0,0,1,.41-2.061,3.279,3.279,0,0,1,5.988,0,5.38,5.38,0,0,1,0,4.122,3.276,3.276,0,0,1-5.988,0A4.884,4.884,0,0,1,927.843,274.674Zm1.013,0a4.128,4.128,0,0,0,.294,1.652,2.225,2.225,0,0,0,.831,1.02,2.5,2.5,0,0,0,2.533,0,2.227,2.227,0,0,0,.831-1.02,4.789,4.789,0,0,0,0-3.3,2.229,2.229,0,0,0-.831-1.02,2.5,2.5,0,0,0-2.533,0,2.228,2.228,0,0,0-.831,1.02A4.13,4.13,0,0,0,928.856,274.674Z" transform="translate(-802.361 -270.722)" fill="#736c6b"/>
      <path id="Path_993" data-name="Path 993" d="M982.145,278.943v-7.649h.811l4.195,4.643v1.434l-4.3-4.749.263-.117v6.438Zm4.539,0v-7.649h.973v7.649Z" transform="translate(-844.565 -271.167)" fill="#736c6b"/>
      <path id="Path_994" data-name="Path 994" d="M1030.707,277.245h.081a3.01,3.01,0,0,0,.552.239,4.035,4.035,0,0,0,.679.154,5.6,5.6,0,0,0,.8.053,3.384,3.384,0,0,0,.866-.1,1.2,1.2,0,0,0,.6-.34.951.951,0,0,0,.218-.664.885.885,0,0,0-.279-.733,1.913,1.913,0,0,0-.836-.329l-.892-.17a2.883,2.883,0,0,1-.932-.345,1.843,1.843,0,0,1-.679-.7,2.255,2.255,0,0,1-.253-1.126,2.4,2.4,0,0,1,.38-1.4,2.213,2.213,0,0,1,1.064-.807,4.478,4.478,0,0,1,1.6-.26,4.267,4.267,0,0,1,.846.085,3.167,3.167,0,0,1,.694.213V272h-.082a3.3,3.3,0,0,0-.613-.233,3.24,3.24,0,0,0-.887-.106,3.339,3.339,0,0,0-1.029.149,1.513,1.513,0,0,0-.729.478,1.32,1.32,0,0,0-.269.86,1.132,1.132,0,0,0,.334.935,2.135,2.135,0,0,0,.922.382l.892.17a2.655,2.655,0,0,1,.9.33,1.68,1.68,0,0,1,.6.621,1.943,1.943,0,0,1,.218.962,2.054,2.054,0,0,1-.193.914,1.779,1.779,0,0,1-.542.653,2.4,2.4,0,0,1-.836.388,4.283,4.283,0,0,1-1.084.127,5.864,5.864,0,0,1-.806-.053,6.383,6.383,0,0,1-.709-.138,4.759,4.759,0,0,1-.593-.191Z" transform="translate(-882.245 -270.722)" fill="#736c6b"/>
      <path id="Path_995" data-name="Path 995" d="M1075.468,271.294h.973v4.8a2.316,2.316,0,0,0,.426,1.578,1.994,1.994,0,0,0,2.553,0,2.316,2.316,0,0,0,.426-1.578v-4.8h.973v4.8a3.2,3.2,0,0,1-.684,2.22,3.025,3.025,0,0,1-4,0,3.253,3.253,0,0,1-.669-2.22Z" transform="translate(-917.096 -271.167)" fill="#736c6b"/>
      <path id="Path_996" data-name="Path 996" d="M1124.676,278.943v-7.649h.973v6.757h3.12v.893Z" transform="translate(-955.341 -271.167)" fill="#736c6b"/>
      <path id="Path_997" data-name="Path 997" d="M1157.876,271.294h5.674v.893H1161.2v6.757h-.972v-6.757h-2.351Z" transform="translate(-981.144 -271.167)" fill="#736c6b"/>
      <path id="Path_998" data-name="Path 998" d="M1205.083,271.294h.973v7.649h-.973Z" transform="translate(-1017.833 -271.167)" fill="#736c6b"/>
      <path id="Path_999" data-name="Path 999" d="M1235.008,278.943v-7.649h.811l4.195,4.643v1.434l-4.3-4.749.263-.117v6.438Zm4.54,0v-7.649h.973v7.649Z" transform="translate(-1041.091 -271.167)" fill="#736c6b"/>
      <path id="Path_1000" data-name="Path 1000" d="M1283.489,274.674a4.57,4.57,0,0,1,.446-2.077,3.265,3.265,0,0,1,1.287-1.381,3.953,3.953,0,0,1,2.036-.494,4.736,4.736,0,0,1,.973.09,2.858,2.858,0,0,1,.729.25v.977h-.081a3.362,3.362,0,0,0-.689-.266,3.449,3.449,0,0,0-.932-.117,2.751,2.751,0,0,0-2.016.728,3.1,3.1,0,0,0-.74,2.289,4.025,4.025,0,0,0,.324,1.737,2.157,2.157,0,0,0,.922,1,2.954,2.954,0,0,0,1.429.324,2.919,2.919,0,0,0,.588-.058q.283-.059.527-.133l-.223.467v-3.379h.973v3.57a3.119,3.119,0,0,1-.826.308,4.472,4.472,0,0,1-1.039.117,3.928,3.928,0,0,1-2.057-.494,3.053,3.053,0,0,1-1.226-1.381A4.962,4.962,0,0,1,1283.489,274.674Z" transform="translate(-1078.771 -270.722)" fill="#736c6b"/>
    </g>
  </g>
</svg>
