<svg width="70" height="71" viewBox="0 0 70 71" fill="none" xmlns="http://www.w3.org/2000/svg">
<path d="M0 43.9814C0.232056 42.737 0.36377 41.4637 0.711182 40.2523C3.44873 30.7065 9.59387 24.4984 19.3551 22.5871C29.5627 20.5884 37.7958 24.2583 43.9166 32.6454C44.1799 33.006 44.4529 33.0489 44.8289 33.0486C52.9164 33.0436 61.004 33.0449 69.0919 33.0449C69.3625 33.0449 69.6334 33.0449 70 33.0449V70.0948H21.875C21.2571 69.9908 20.6344 69.9089 20.0221 69.7796C9.92554 67.6489 3.42578 61.6562 0.670776 51.6851C0.34668 50.5123 0.21875 49.285 0 48.0831V43.9814ZM43.8998 46.0546C43.8932 35.0669 34.9907 26.1837 23.9955 26.1934C13.0273 26.203 4.08215 35.1532 4.10205 46.0976C4.12183 57.0347 13.1141 66.009 24.0355 65.9913C34.9973 65.9736 43.906 57.0321 43.8998 46.0546ZM37.7964 65.945H65.8453V61.9165C65.7689 61.9037 65.7466 61.8965 65.7244 61.8963C57.9808 61.8911 50.2374 61.8845 42.4939 61.8916C42.2939 61.8917 42.05 61.992 41.9016 62.1277C40.5123 63.4006 39.1398 64.6914 37.7964 65.945ZM45.1495 57.6896H65.853V53.6604C63.6915 53.6604 61.5758 53.6604 59.4603 53.6604C55.4515 53.6604 51.4426 53.6564 47.4342 53.6709C47.2028 53.6717 46.8339 53.7594 46.7629 53.9138C46.1984 55.1448 45.691 56.4017 45.1495 57.6896ZM65.8647 41.226V37.1772H46.4061C46.8131 38.5339 47.2152 39.8736 47.6215 41.226H65.8647ZM47.8718 49.4363H65.8557V45.4551H48.0917C48.0171 46.8054 47.9458 48.096 47.8718 49.4363Z" fill="#131D47"/>
<path d="M49.3981 11.6683V0.130127H61.7591V11.632H65.8863C65.8863 12.8901 65.8919 14.0857 65.8767 15.2811C65.8752 15.3936 65.7587 15.5217 65.6668 15.6138C62.349 18.9343 59.028 22.2514 55.7063 25.5676C55.6759 25.598 55.6271 25.61 55.5298 25.6599C54.7931 24.9131 54.0465 24.1487 53.2917 23.3927C50.7802 20.8772 48.2729 18.3573 45.7433 15.8599C45.3858 15.5069 45.245 15.1565 45.2621 14.6646C45.2957 13.6919 45.272 12.7172 45.272 11.6683H49.3981ZM53.5451 4.216V15.8276H51.6958C53.0491 17.1761 54.3366 18.4592 55.5669 19.6854C56.826 18.4206 58.1169 17.1236 59.4292 15.8051H57.6449V4.216H53.5451Z" fill="#131D47"/>
<path d="M21.9631 58.9871V56.3729C18.7888 55.5849 16.992 53.642 16.7107 50.3191H20.8161C21.2173 51.8203 21.7495 52.2217 23.3362 52.2219C23.9741 52.2219 24.6127 52.2378 25.2497 52.2127C26.3371 52.1702 27.1838 51.2999 27.207 50.2318C27.229 49.2056 26.444 48.2748 25.3898 48.1899C24.4155 48.1116 23.4309 48.1677 22.4554 48.0998C19.3939 47.8866 17.0687 45.6044 16.7123 42.5015C16.3876 39.6755 18.3224 36.8361 21.1925 36.0456C21.8387 35.8675 22.0063 35.5862 21.9564 34.978C21.9068 34.3719 21.9455 33.7586 21.9455 33.1079H26.0787V35.8274C27.829 36.2024 29.2344 37.0461 30.2258 38.5114C30.9068 39.5183 31.2291 40.6364 31.3022 41.9551C29.9811 41.9551 28.693 41.9639 27.4057 41.939C27.2999 41.937 27.1477 41.7222 27.103 41.5796C26.7408 40.4177 26.0773 39.9053 24.8568 39.8893C24.2419 39.8815 23.6262 39.8736 23.0115 39.8916C21.745 39.9288 20.8325 40.8101 20.8407 41.967C20.8495 43.1341 21.7661 43.9637 23.0333 44.0013C24.2132 44.0363 25.4227 43.9667 26.5647 44.2048C29.2837 44.7715 31.265 47.2469 31.3074 49.9047C31.3556 52.9588 29.591 55.3696 26.7312 56.1586C26.5362 56.2122 26.3434 56.2731 26.1078 56.3431V58.9871H21.9631Z" fill="#131D47"/>
</svg>
