<svg width="30" height="30" viewBox="0 0 30 30" fill="none" xmlns="http://www.w3.org/2000/svg">
<path d="M16.1867 13.8C13.8134 13.0133 12.6667 12.52 12.6667 11.2667C12.6667 9.90667 14.1467 9.41333 15.08 9.41333C16.8267 9.41333 17.4667 10.7333 17.6134 11.2L19.72 10.3067C19.52 9.70667 18.6267 7.74667 16.3334 7.32V5.66667H13.6667V7.34667C10.36 8.09333 10.3467 11.16 10.3467 11.2933C10.3467 14.32 13.3467 15.1733 14.8134 15.7067C16.92 16.4533 17.8534 17.1333 17.8534 18.4133C17.8534 19.92 16.4534 20.56 15.2134 20.56C12.7867 20.56 12.0934 18.0667 12.0134 17.7733L9.80004 18.6667C10.64 21.5867 12.84 22.3733 13.6667 22.6133V24.3333H16.3334V22.68C16.8667 22.56 20.2 21.8933 20.2 18.3867C20.2 16.5333 19.3867 14.9067 16.1867 13.8ZM3.00004 27H0.333374V19H8.33337V21.6667H5.02671C7.17337 24.88 10.84 27 15 27C21.6267 27 27 21.6267 27 15H29.6667C29.6667 23.1067 23.1067 29.6667 15 29.6667C10.04 29.6667 5.65337 27.2 3.00004 23.44V27ZM0.333374 15C0.333374 6.89333 6.89337 0.333332 15 0.333332C19.96 0.333332 24.3467 2.8 27 6.56V3H29.6667V11H21.6667V8.33333H24.9734C22.8267 5.12 19.16 3 15 3C8.37337 3 3.00004 8.37333 3.00004 15H0.333374Z" fill="white"/>
</svg>
