<svg width="70" height="71" viewBox="0 0 70 71" fill="none" xmlns="http://www.w3.org/2000/svg">
<path d="M0.000976562 25.8591C0.223633 24.5407 0.351562 23.1984 0.682861 21.9084C3.54053 10.7771 10.5137 3.59346 21.677 0.880567C36.5417 -2.73125 51.6481 6.90596 54.9672 21.8356C56.0056 26.5056 55.8643 31.1354 54.5711 35.7326C55.7416 36.008 56.9405 36.1706 58.0536 36.571C64.8199 39.0065 68.9058 43.7502 69.8549 50.9177C71.0515 59.9538 64.7609 68.3464 55.8047 69.8952C55.3851 69.967 54.9704 70.069 54.5535 70.1574H50.9984C50.8985 70.1135 50.8018 70.0451 50.6977 70.03C44.1848 69.069 39.5756 65.5656 36.9397 59.5573C36.2751 58.0422 35.9651 56.3723 35.4878 54.759C29.9709 56.2771 24.3452 56.2937 18.8416 54.2878C8.97534 50.6901 2.87329 43.7019 0.549805 33.4499C0.299805 32.3474 0.180664 31.2155 0.000976562 30.0974C0.000976562 28.6848 0.000976562 27.2717 0.000976562 25.8591ZM4.10156 28.6931C4.18872 29.4499 4.27344 30.9558 4.54517 32.4265C7.12939 46.4172 21.8179 55.0163 35.3215 50.4548C35.5354 50.382 35.7769 50.1037 35.8281 49.8806C37.5498 42.3703 42.1578 37.7453 49.6634 36.028C50.0722 35.9343 50.2159 35.7717 50.3321 35.4167C51.6116 31.5075 51.8858 27.5271 51.0999 23.4973C48.59 10.6257 36.1145 2.19502 23.3223 4.69648C12.2085 6.86982 4.12866 16.6457 4.10156 28.6931ZM52.7634 39.8806C45.5198 39.9177 39.7064 45.7575 39.728 52.9733C39.7495 60.2214 45.663 66.1066 52.8721 66.0544C60.0536 66.0031 65.9376 60.0617 65.9 52.9011C65.8621 45.6994 59.9532 39.843 52.7634 39.8806Z" fill="#131D47"/>
<path d="M14.1066 28.5051H41.5352C42.0899 33.4583 40.3806 38.7151 35.4351 42.0422C30.8022 45.1589 24.6321 45.1165 20.0266 41.9158C15.1505 38.5266 13.5689 33.3269 14.1066 28.5051ZM18.4748 32.637C18.9471 36.0095 22.5628 40.4158 28.2569 40.2029C32.559 40.0417 37.2142 36.0676 37.1386 32.637H18.4748Z" fill="#131D47"/>
<path d="M26.3593 23.6323H22.1862C22.1862 22.7647 22.2245 21.9043 22.1766 21.0489C22.1134 19.9165 21.0641 19.2305 19.9926 19.5698C19.3367 19.7774 18.8796 20.377 18.8629 21.1123C18.8444 21.9292 18.8588 22.7461 18.8588 23.6157H14.829C13.9954 18.9673 16.2882 15.3682 20.7417 15.3555C23.7236 15.3467 26.1863 17.8565 26.3519 20.9541C26.399 21.8325 26.3593 22.7163 26.3593 23.6323Z" fill="#131D47"/>
<path d="M33.6354 23.655H29.6437C29.166 20.1638 29.7396 16.8161 33.8044 15.5739C37.402 14.4748 41.1003 17.2741 41.1489 21.0285C41.1599 21.8869 41.1505 22.7458 41.1505 23.6359H37.0419C37.0419 22.8513 37.0654 22.0646 37.0365 21.2795C36.9889 19.9938 35.975 19.2189 34.8298 19.5632C34.1128 19.7785 33.6594 20.4147 33.6392 21.2873C33.6212 22.0559 33.6354 22.8254 33.6354 23.655Z" fill="#131D47"/>
<path d="M58.6268 46.698C59.6777 47.7507 60.6211 48.696 61.5332 49.6106C57.8253 53.3181 54.0751 57.0691 50.3813 60.7629C48.4543 58.843 46.4928 56.8889 44.5771 54.9797C45.4514 54.1086 46.3979 53.1658 47.415 52.1521C48.2966 53.0808 49.2611 54.0964 50.234 55.1204C53.1044 52.24 55.865 49.4695 58.6268 46.698Z" fill="#131D47"/>
</svg>
