<svg width="24" height="24" viewBox="0 0 24 24" fill="none" xmlns="http://www.w3.org/2000/svg">
<path d="M12.0002 0C5.37259 0 0 5.37259 0 12.0002C0 18.6278 5.37259 24.0004 12.0002 24.0004C18.6278 24.0004 24.0004 18.6278 24.0004 12.0002C24.0004 5.37259 18.6278 0 12.0002 0ZM9.06265 16.974H6.63261V9.1539H9.06265V16.974ZM7.83263 8.19388C7.06511 8.19388 6.56886 7.65013 6.56886 6.97761C6.56886 6.29135 7.08011 5.76384 7.86388 5.76384C8.64764 5.76384 9.12765 6.29135 9.14265 6.97761C9.14265 7.65013 8.64764 8.19388 7.83263 8.19388ZM17.9378 16.974H15.5078V12.6402C15.5078 11.6314 15.1552 10.9464 14.2765 10.9464C13.6052 10.9464 13.2065 11.4102 13.0302 11.8564C12.9652 12.0152 12.949 12.2402 12.949 12.464V16.9728H10.5177V11.6477C10.5177 10.6714 10.4864 9.85516 10.4539 9.15265H12.5652L12.6765 10.2389H12.7252C13.0452 9.72891 13.829 8.9764 15.1402 8.9764C16.739 8.9764 17.9378 10.0477 17.9378 12.3502V16.974Z" fill="white"/>
</svg>
