<svg width="263" height="43" viewBox="0 0 263 43" fill="none" xmlns="http://www.w3.org/2000/svg">
<path d="M42.8972 0C42.9113 4.23047 42.3623 15.0824 34.8906 25.3355C22.7065 42.0546 2.56551 42.84 0 42.8972C3.37314 41.7255 14.7765 37.2986 22.3474 25.0497C28.9789 14.3202 28.8325 3.798 28.5981 0H42.8972Z" fill="white"/>
<path d="M42.8975 42.8972H28.5703C31.3633 39.1652 34.4477 34.2964 37.0437 28.2593C41.9005 16.9655 42.8549 6.68478 42.8975 0V28.5701V42.8972Z" fill="white"/>
<path d="M131.471 26.1342H123.167C120.53 26.1342 118.679 25.6784 117.614 24.7665C116.548 23.8553 116.016 22.2456 116.016 19.9387V2.6709H131.471V6.7572H120.596V12.2605H128.209L127.879 16.3468H120.596V19.6092C120.596 20.532 120.805 21.1694 121.222 21.5206C121.639 21.8724 122.397 22.0479 123.496 22.0479H131.471V26.1342Z" fill="white"/>
<path d="M150.506 26.1342H143.519C140.883 26.1342 138.977 25.6234 137.802 24.6019C136.626 23.5803 136.039 21.916 136.039 19.6092V2.6709H140.62V19.6092C140.62 20.532 140.828 21.1694 141.246 21.5206C141.663 21.8724 142.421 22.0479 143.519 22.0479H150.506V26.1342Z" fill="white"/>
<path d="M170.53 26.1342H162.225C159.589 26.1342 157.738 25.6784 156.672 24.7665C155.607 23.8553 155.074 22.2456 155.074 19.9387V2.6709H170.53V6.7572H159.655V12.2605H167.267L166.937 16.3468H159.655V19.6092C159.655 20.532 159.863 21.1694 160.281 21.5206C160.698 21.8724 161.456 22.0479 162.555 22.0479H170.53V26.1342Z" fill="white"/>
<path d="M240.654 2.6709V23.7615C240.654 24.4864 240.434 25.1074 239.995 25.6234C239.555 26.1394 239.039 26.3978 238.446 26.3978C236.93 26.3978 235.689 25.5193 234.723 23.7615L226.616 11.0741V26.1342H222.035V2.6709H226.451L236.074 18.0276V2.6709H240.654Z" fill="white"/>
<path d="M101.198 7.28522C101.615 6.93344 102.373 6.75832 103.472 6.75832H111.448V2.6709H103.143C100.507 2.6709 98.6547 3.12762 97.5905 4.03975C96.8113 4.70503 96.3161 5.74481 96.1078 7.15736C96.0307 7.67557 95.9922 8.24637 95.9922 8.86598V19.9398V20.3337H95.9991C96.0552 22.4292 96.5857 23.9083 97.5905 24.7661C98.6547 25.6782 100.507 26.1351 103.143 26.1351H111.448V22.0475H103.472C102.373 22.0475 101.615 21.8726 101.198 21.5206C100.782 21.1706 100.573 20.5316 100.573 19.609V9.19682C100.573 8.27423 100.782 7.63524 101.198 7.28522Z" fill="white"/>
<path d="M81.1729 7.28522C81.5895 6.93344 82.3477 6.75832 83.447 6.75832H91.4224V2.6709H83.1179C80.4815 2.6709 78.6294 3.12762 77.5651 4.03975C76.786 4.70503 76.2907 5.74481 76.0824 7.15736C76.0053 7.67557 75.9668 8.24637 75.9668 8.86598V19.9398V20.3337H75.9739C76.0298 22.4292 76.5603 23.9083 77.5651 24.7661C78.6294 25.6782 80.4815 26.1351 83.1179 26.1351H91.4224V22.0475H83.447C82.3477 22.0475 81.5895 21.8726 81.1729 21.5206C80.7563 21.1706 80.5479 20.5316 80.5479 19.609V9.19682C80.5479 8.27423 80.7563 7.63524 81.1729 7.28522Z" fill="white"/>
<path d="M184.295 17.445H182.983L182.977 17.4343H179.68V26.1351H175.101V13.6122H183.997C184.964 13.6122 185.761 13.2784 186.386 12.6067C187.013 11.9372 187.326 11.1017 187.326 10.1025V10.0602C187.318 9.08006 187.016 8.28714 186.42 7.68137C185.815 7.06488 185.007 6.75653 183.997 6.75653H175.101V2.6709H184.295C185.57 2.6709 186.703 2.88344 187.692 3.31299C188.508 3.66145 189.226 4.15695 189.847 4.79659C190.245 5.20699 190.583 5.647 190.863 6.12111C191.541 7.25203 191.888 8.56564 191.905 10.0602C191.907 10.1005 191.907 10.1431 191.907 10.1856C191.907 11.6565 191.55 12.9427 190.836 14.0438C190.831 14.0522 190.827 14.0607 190.818 14.0692C190.771 14.1425 190.721 14.2155 190.67 14.2882C190.098 15.0978 189.185 16.0405 187.692 16.8051C186.703 17.2324 185.57 17.445 184.295 17.445Z" fill="white"/>
<path d="M192.861 26.135H187.555L183.542 18.5078H184.294C185.757 18.5078 187.064 18.2504 188.21 17.7402L192.861 26.135Z" fill="white"/>
<path d="M262.359 7.02087H256.065V26.3979H251.484V7.02087H245.223V2.93457H262.359V7.02087Z" fill="white"/>
<path d="M71.3994 26.1342L63.886 4.64821C63.6001 3.85728 63.2762 3.32991 62.9137 3.06636C62.5512 2.80278 62.0733 2.6709 61.4803 2.6709C61.4466 2.6709 61.4145 2.67313 61.3813 2.67401C61.3484 2.67313 61.3161 2.6709 61.2824 2.6709C60.6893 2.6709 60.2116 2.80278 59.8492 3.06636C59.4867 3.32991 59.1628 3.85728 58.8769 4.64821L51.3633 26.1342H56.1418L61.3813 9.25075L66.6211 26.1342H71.3994Z" fill="white"/>
<path d="M209.952 4.64821C209.667 3.85728 209.343 3.32991 208.98 3.06636C208.618 2.80278 208.14 2.6709 207.547 2.6709C207.513 2.6709 207.481 2.67313 207.448 2.67401C207.415 2.67313 207.383 2.6709 207.349 2.6709C206.756 2.6709 206.278 2.80278 205.915 3.06636C205.553 3.32991 205.229 3.85728 204.943 4.64821L197.43 26.1342H202.208L207.448 9.25095L212.687 26.1342H217.466L209.952 4.64821Z" fill="white"/>
<path d="M51.2773 32.4482H56.9518V33.3408H54.6008V40.0977H53.6283V33.3408H51.2773V32.4482Z" fill="white"/>
<path d="M61.7949 40.0977V32.4482H62.7676V40.0977H61.7949ZM62.3624 33.3408V32.4482H66.4153V33.3408H62.3624ZM62.3624 36.5279V35.6356H65.848V36.5279H62.3624ZM62.3624 40.0977V39.2052H66.5369V40.0977H62.3624Z" fill="white"/>
<path d="M71.1777 36.2735C71.1777 35.4803 71.321 34.7881 71.6084 34.1964C71.8954 33.6051 72.3142 33.1445 72.8647 32.8155C73.4153 32.4859 74.0823 32.3213 74.8659 32.3213C75.2106 32.3213 75.516 32.3516 75.7831 32.4115C76.0497 32.4719 76.2845 32.5552 76.4872 32.6613V33.6387H76.4061C76.2034 33.5112 75.9721 33.4157 75.7121 33.3517C75.4519 33.2882 75.17 33.2562 74.8659 33.2562C74.3254 33.2562 73.8542 33.3662 73.4525 33.5857C73.0506 33.8054 72.7398 34.138 72.5203 34.5842C72.3006 35.0305 72.191 35.5935 72.191 36.2735C72.191 36.9535 72.3006 37.5165 72.5203 37.9627C72.7398 38.409 73.0506 38.7419 73.4525 38.9613C73.8542 39.181 74.3254 39.2908 74.8659 39.2908C75.17 39.2908 75.4519 39.2587 75.7121 39.1953C75.9721 39.1313 76.2034 39.0357 76.4061 38.9083H76.4872V39.8857C76.2845 39.992 76.0497 40.0753 75.7831 40.1354C75.516 40.1954 75.2106 40.2257 74.8659 40.2257C74.0823 40.2257 73.4153 40.0682 72.8647 39.7529C72.3142 39.4379 71.8954 38.9845 71.6084 38.3929C71.321 37.8016 71.1777 37.0954 71.1777 36.2735Z" fill="white"/>
<path d="M81.8984 40.0977V32.4482H82.8711V40.0977H81.8984ZM82.4659 36.5704V35.6781H86.8429V36.5704H82.4659ZM86.4377 40.0977V32.4482H87.4104V40.0977H86.4377Z" fill="white"/>
<path d="M93.1055 40.0977V32.4482H93.916L98.111 37.0911V38.5252L93.8148 33.7763L94.0781 33.6596V40.0977H93.1055ZM97.6447 40.0977V32.4482H98.6174V40.0977H97.6447Z" fill="white"/>
<path d="M103.906 36.2735C103.906 35.4944 104.043 34.8075 104.317 34.2124C104.59 33.6176 104.982 33.1537 105.492 32.8206C106.002 32.4879 106.608 32.3213 107.311 32.3213C108.013 32.3213 108.619 32.4879 109.13 32.8206C109.64 33.1537 110.031 33.6176 110.305 34.2124C110.578 34.8075 110.715 35.4944 110.715 36.2735C110.715 37.0528 110.578 37.7397 110.305 38.3348C110.031 38.9297 109.64 39.3936 109.13 39.7264C108.619 40.0593 108.013 40.2257 107.311 40.2257C106.601 40.2257 105.993 40.0593 105.487 39.7264C104.98 39.3936 104.59 38.9297 104.317 38.3348C104.043 37.7397 103.906 37.0528 103.906 36.2735ZM104.919 36.2735C104.919 36.9254 105.017 37.4759 105.213 37.9255C105.409 38.3755 105.686 38.7156 106.044 38.9455C106.402 39.1759 106.824 39.2908 107.311 39.2908C107.797 39.2908 108.219 39.1759 108.577 38.9455C108.935 38.7156 109.212 38.3755 109.408 37.9255C109.604 37.4759 109.702 36.9254 109.702 36.2735C109.702 35.6218 109.604 35.0713 109.408 34.6215C109.212 34.1716 108.935 33.8316 108.577 33.6015C108.219 33.3713 107.797 33.2562 107.311 33.2562C106.824 33.2562 106.402 33.3713 106.044 33.6015C105.686 33.8316 105.409 34.1716 105.213 34.6215C105.017 35.0713 104.919 35.6218 104.919 36.2735Z" fill="white"/>
<path d="M116.004 40.0977V32.4482H116.977V39.2052H120.097V40.0977H116.004Z" fill="white"/>
<path d="M124.414 36.2735C124.414 35.4944 124.551 34.8075 124.824 34.2124C125.098 33.6176 125.49 33.1537 126 32.8206C126.51 32.4879 127.116 32.3213 127.819 32.3213C128.521 32.3213 129.127 32.4879 129.637 32.8206C130.147 33.1537 130.539 33.6176 130.812 34.2124C131.086 34.8075 131.223 35.4944 131.223 36.2735C131.223 37.0528 131.086 37.7397 130.812 38.3348C130.539 38.9297 130.147 39.3936 129.637 39.7264C129.127 40.0593 128.521 40.2257 127.819 40.2257C127.109 40.2257 126.501 40.0593 125.995 39.7264C125.488 39.3936 125.098 38.9297 124.824 38.3348C124.551 37.7397 124.414 37.0528 124.414 36.2735ZM125.427 36.2735C125.427 36.9254 125.525 37.4759 125.721 37.9255C125.917 38.3755 126.194 38.7156 126.552 38.9455C126.91 39.1759 127.332 39.2908 127.819 39.2908C128.305 39.2908 128.727 39.1759 129.085 38.9455C129.443 38.7156 129.72 38.3755 129.916 37.9255C130.112 37.4759 130.21 36.9254 130.21 36.2735C130.21 35.6218 130.112 35.0713 129.916 34.6215C129.72 34.1716 129.443 33.8316 129.085 33.6015C128.727 33.3713 128.305 33.2562 127.819 33.2562C127.332 33.2562 126.91 33.3713 126.552 33.6015C126.194 33.8316 125.917 34.1716 125.721 34.6215C125.525 35.0713 125.427 35.6218 125.427 36.2735Z" fill="white"/>
<path d="M136.107 36.2735C136.107 35.4803 136.256 34.7881 136.553 34.1964C136.85 33.6051 137.279 33.1445 137.84 32.8155C138.401 32.4859 139.08 32.3213 139.877 32.3213C140.241 32.3213 140.566 32.3516 140.85 32.4115C141.133 32.4719 141.377 32.5552 141.579 32.6613V33.6387H141.498C141.315 33.5396 141.086 33.4511 140.809 33.3731C140.532 33.2954 140.221 33.2562 139.877 33.2562C139.026 33.2562 138.353 33.499 137.86 33.984C137.367 34.4693 137.121 35.2324 137.121 36.2735C137.121 36.9818 137.229 37.5608 137.445 38.0107C137.661 38.4604 137.968 38.7933 138.367 39.0092C138.766 39.2256 139.242 39.3331 139.796 39.3331C139.998 39.3331 140.194 39.3138 140.383 39.275C140.572 39.236 140.748 39.1917 140.91 39.1422L140.687 39.6096V36.2309H141.66V39.8008C141.437 39.9282 141.162 40.0309 140.834 40.1087C140.507 40.1867 140.161 40.2257 139.796 40.2257C138.971 40.2257 138.286 40.061 137.739 39.7315C137.192 39.4024 136.783 38.9419 136.513 38.3506C136.243 37.7591 136.107 37.0669 136.107 36.2735Z" fill="white"/>
<path d="M148.854 40.0977V36.9104L146.301 32.5334V32.4482H147.395L149.543 36.2518H149.158L151.286 32.4482H152.34V32.5334L149.827 36.8469V40.0977H148.854Z" fill="white"/>
<path d="M156.818 37.1658V36.3158H161.763V37.1658H156.818ZM158.885 39.3329V34.1484H159.696V39.3329H158.885Z" fill="white"/>
<path d="M166.729 36.2735C166.729 35.4803 166.872 34.7881 167.159 34.1964C167.446 33.6051 167.865 33.1445 168.416 32.8155C168.966 32.4859 169.633 32.3213 170.417 32.3213C170.761 32.3213 171.067 32.3516 171.334 32.4115C171.601 32.4719 171.835 32.5552 172.038 32.6613V33.6387H171.957C171.754 33.5112 171.523 33.4157 171.263 33.3517C171.003 33.2882 170.721 33.2562 170.417 33.2562C169.876 33.2562 169.405 33.3662 169.003 33.5857C168.601 33.8054 168.291 34.138 168.071 34.5842C167.851 35.0305 167.742 35.5935 167.742 36.2735C167.742 36.9535 167.851 37.5165 168.071 37.9627C168.291 38.409 168.601 38.7419 169.003 38.9613C169.405 39.181 169.876 39.2908 170.417 39.2908C170.721 39.2908 171.003 39.2587 171.263 39.1953C171.523 39.1313 171.754 39.0357 171.957 38.9083H172.038V39.8857C171.835 39.992 171.601 40.0753 171.334 40.1354C171.067 40.1954 170.761 40.2257 170.417 40.2257C169.633 40.2257 168.966 40.0682 168.416 39.7529C167.865 39.4379 167.446 38.9845 167.159 38.3929C166.872 37.8016 166.729 37.0954 166.729 36.2735Z" fill="white"/>
<path d="M176.76 36.2735C176.76 35.4944 176.896 34.8075 177.17 34.2124C177.444 33.6176 177.835 33.1537 178.346 32.8206C178.855 32.4879 179.462 32.3213 180.164 32.3213C180.867 32.3213 181.473 32.4879 181.983 32.8206C182.493 33.1537 182.885 33.6176 183.158 34.2124C183.432 34.8075 183.569 35.4944 183.569 36.2735C183.569 37.0528 183.432 37.7397 183.158 38.3348C182.885 38.9297 182.493 39.3936 181.983 39.7264C181.473 40.0593 180.867 40.2257 180.164 40.2257C179.455 40.2257 178.847 40.0593 178.341 39.7264C177.834 39.3936 177.444 38.9297 177.17 38.3348C176.896 37.7397 176.76 37.0528 176.76 36.2735ZM177.773 36.2735C177.773 36.9254 177.871 37.4759 178.067 37.9255C178.263 38.3755 178.54 38.7156 178.898 38.9455C179.256 39.1759 179.678 39.2908 180.164 39.2908C180.651 39.2908 181.073 39.1759 181.431 38.9455C181.789 38.7156 182.066 38.3755 182.262 37.9255C182.458 37.4759 182.556 36.9254 182.556 36.2735C182.556 35.6218 182.458 35.0713 182.262 34.6215C182.066 34.1716 181.789 33.8316 181.431 33.6015C181.073 33.3713 180.651 33.2562 180.164 33.2562C179.678 33.2562 179.256 33.3713 178.898 33.6015C178.54 33.8316 178.263 34.1716 178.067 34.6215C177.871 35.0713 177.773 35.6218 177.773 36.2735Z" fill="white"/>
<path d="M188.857 40.0977V32.4482H189.668L193.863 37.0911V38.5252L189.567 33.7763L189.83 33.6596V40.0977H188.857ZM193.397 40.0977V32.4482H194.37V40.0977H193.397Z" fill="white"/>
<path d="M199.739 38.8446H199.82C199.982 38.9366 200.167 39.0163 200.372 39.0836C200.578 39.1509 200.805 39.2024 201.051 39.2378C201.298 39.2732 201.563 39.2908 201.847 39.2908C202.171 39.2908 202.46 39.2572 202.713 39.1899C202.967 39.1226 203.166 39.0092 203.311 38.8499C203.456 38.6906 203.529 38.4691 203.529 38.1858C203.529 37.846 203.436 37.6013 203.25 37.4528C203.064 37.3039 202.786 37.1943 202.414 37.1234L201.523 36.9535C201.185 36.8898 200.874 36.7745 200.59 36.6081C200.307 36.4417 200.08 36.2097 199.912 35.9123C199.743 35.6149 199.658 35.2395 199.658 34.7861C199.658 34.2195 199.785 33.7539 200.038 33.3889C200.291 33.0242 200.646 32.7551 201.102 32.5815C201.558 32.4082 202.09 32.3213 202.698 32.3213C202.982 32.3213 203.264 32.3496 203.544 32.4062C203.824 32.4632 204.056 32.5338 204.238 32.6187V33.5961H204.157C203.995 33.5112 203.791 33.4335 203.544 33.3626C203.297 33.2918 203.002 33.2562 202.657 33.2562C202.279 33.2562 201.936 33.3058 201.629 33.405C201.322 33.5041 201.078 33.6636 200.899 33.8831C200.721 34.1028 200.631 34.3895 200.631 34.7435C200.631 35.19 200.742 35.5015 200.965 35.6786C201.188 35.8557 201.496 35.9832 201.887 36.0609L202.779 36.2309C203.124 36.2949 203.424 36.4045 203.681 36.5605C203.938 36.7162 204.138 36.9234 204.284 37.1818C204.429 37.4405 204.502 37.7609 204.502 38.1434C204.502 38.4905 204.437 38.7951 204.309 39.0571C204.181 39.3191 204 39.5368 203.767 39.7104C203.534 39.8841 203.255 40.0131 202.931 40.0982C202.607 40.1831 202.245 40.2257 201.847 40.2257C201.563 40.2257 201.295 40.2078 201.041 40.1727C200.788 40.137 200.551 40.0913 200.332 40.0345C200.112 39.9779 199.915 39.914 199.739 39.8431V38.8446Z" fill="white"/>
<path d="M209.648 32.4482H210.621V37.2504C210.621 37.9943 210.763 38.5201 211.047 38.828C211.33 39.1361 211.756 39.2903 212.323 39.2903C212.891 39.2903 213.316 39.1361 213.6 38.828C213.884 38.5201 214.026 37.9943 214.026 37.2504V32.4482H214.998V37.2504C214.998 38.2278 214.77 38.9682 214.314 39.4708C213.858 39.9739 213.195 40.2252 212.323 40.2252C211.432 40.2252 210.763 39.9739 210.317 39.4708C209.871 38.9682 209.648 38.2278 209.648 37.2504V32.4482Z" fill="white"/>
<path d="M220.613 40.0977V32.4482H221.586V39.2052H224.707V40.0977H220.613Z" fill="white"/>
<path d="M228.01 32.4482H233.684V33.3408H231.333V40.0977H230.361V33.3408H228.01V32.4482Z" fill="white"/>
<path d="M238.527 32.4482H239.5V40.0977H238.527V32.4482Z" fill="white"/>
<path d="M245.193 40.0977V32.4482H246.004L250.199 37.0911V38.5252L245.903 33.7763L246.166 33.6596V40.0977H245.193ZM249.733 40.0977V32.4482H250.706V40.0977H249.733Z" fill="white"/>
<path d="M255.996 36.2735C255.996 35.4803 256.145 34.7881 256.442 34.1964C256.739 33.6051 257.168 33.1445 257.729 32.8155C258.29 32.4859 258.968 32.3213 259.765 32.3213C260.13 32.3213 260.454 32.3516 260.738 32.4115C261.022 32.4719 261.265 32.5552 261.468 32.6613V33.6387H261.387C261.204 33.5396 260.975 33.4511 260.698 33.3731C260.42 33.2954 260.11 33.2562 259.765 33.2562C258.914 33.2562 258.242 33.499 257.749 33.984C257.256 34.4693 257.009 35.2324 257.009 36.2735C257.009 36.9818 257.117 37.5608 257.333 38.0107C257.55 38.4604 257.857 38.7933 258.256 39.0092C258.654 39.2256 259.13 39.3331 259.684 39.3331C259.887 39.3331 260.083 39.3138 260.272 39.275C260.461 39.236 260.637 39.1917 260.799 39.1422L260.576 39.6096V36.2309H261.549V39.8008C261.326 39.9282 261.05 40.0309 260.723 40.1087C260.395 40.1867 260.049 40.2257 259.684 40.2257C258.86 40.2257 258.175 40.061 257.627 39.7315C257.08 39.4024 256.671 38.9419 256.401 38.3506C256.131 37.7591 255.996 37.0669 255.996 36.2735Z" fill="white"/>
</svg>
