<svg width="78" height="78" viewBox="0 0 78 78" fill="none" xmlns="http://www.w3.org/2000/svg">
<path d="M41.2559 78H36.6821V73.2113C28.1099 72.5357 20.7432 69.2267 14.7106 63.1854C8.68555 57.1516 5.39117 49.7834 4.72284 41.2276H0V36.6507H4.73633C5.40558 28.0984 8.71667 20.7598 14.7329 14.7421C20.7662 8.70761 28.1352 5.40488 36.6998 4.73619V0H41.2686V4.73938C49.8134 5.41328 57.1602 8.70824 63.183 14.7195C69.226 20.7508 72.5349 28.1167 73.2108 36.6878H78V41.2612H73.2108C72.5378 49.8176 69.2355 57.1777 63.2051 63.2072C57.1749 69.2367 49.8137 72.5385 41.2559 73.2115V78ZM36.6747 23.1936C29.1423 24.1969 23.8047 30.6254 23.2289 36.7065H27.4813V41.2785H23.1919C24.1141 48.4643 30.2219 54.0201 36.7172 54.7334V50.4538H41.2571V54.7457C47.9489 54.0461 54.0329 47.9641 54.7456 41.2369H50.4431V36.6971H54.7255C53.9243 29.4816 47.4689 23.7693 41.2269 23.2548V27.4818H36.6747V23.1936ZM36.6522 9.41786C22.0706 10.3383 10.2178 22.6481 9.42181 36.6473H18.4015C20.3276 26.3809 26.3796 20.3236 36.6522 18.409V9.41786ZM59.4435 36.6441H68.5266C67.6285 22.1749 55.3943 10.2457 41.315 9.43037V18.5062C51.0725 19.8686 58.0501 26.8478 59.4435 36.6441ZM36.6541 59.4516C27.5419 58.3345 19.807 51.389 18.4655 41.2992H9.362C10.0245 48.6753 12.9232 54.9705 18.1604 60.1254C23.2714 65.156 29.4523 67.9432 36.6541 68.5736V59.4516ZM59.5364 41.3006C57.6082 51.5701 51.5562 57.6274 41.3013 59.5376V68.533C55.9955 67.5857 67.7455 55.1701 68.5131 41.3006H59.5364Z" fill="#131D47"/>
<path d="M45.8206 39.0186C45.8 42.7934 42.6888 45.8565 38.9062 45.8264C35.1323 45.7963 32.0786 42.6774 32.1176 38.893C32.1562 35.1517 35.2438 32.1118 38.9938 32.1231C42.7703 32.1345 45.8412 35.2364 45.8206 39.0186ZM39.0066 36.6997C37.8035 36.6714 36.7083 37.74 36.6939 38.9562C36.6799 40.1345 37.6947 41.192 38.8934 41.2485C40.0883 41.3048 41.2008 40.2555 41.244 39.0314C41.2863 37.8327 40.2268 36.7285 39.0066 36.6997Z" fill="#131D47"/>
</svg>
