<svg width="71" height="71" viewBox="0 0 71 71" fill="none" xmlns="http://www.w3.org/2000/svg">
<path d="M21.0038 0.121338C21.8131 0.414551 22.678 0.606445 23.4221 1.01733C26.9088 2.94214 28.081 7.25293 26.115 10.7202C26.0362 10.8589 25.959 10.9988 25.854 11.1868C27.2364 12.4534 28.3634 13.95 28.6632 15.8257C28.9491 17.6143 28.957 19.4478 29.0915 21.3213H11.0615C10.769 17.5168 10.9664 13.9004 14.1607 11.2041C12.8104 9.05371 12.4997 6.82129 13.4652 4.50269C14.4062 2.24243 16.1251 0.849609 18.5019 0.266113C18.6523 0.229492 18.7971 0.170166 18.9446 0.121338H21.0038ZM22.9269 7.16895C22.9209 5.58228 21.5676 4.23438 19.9883 4.24194C18.4013 4.24927 17.0622 5.60352 17.0709 7.19214C17.0797 8.78711 18.4303 10.1311 20.0111 10.1182C21.6028 10.105 22.933 8.75952 22.9269 7.16895ZM24.7379 17.1528C24.4614 15.7705 23.7772 14.7598 22.6943 14.0286C22.5285 13.9167 22.2246 13.9236 22.0126 13.9802C20.6572 14.3442 19.3115 14.3557 17.9612 13.9641C17.7987 13.917 17.5702 13.8589 17.4526 13.9331C16.2709 14.6792 15.526 15.7263 15.2709 17.1528H24.7379Z" fill="#131D47"/>
<path d="M43.106 0.121338C44.3665 0.457031 45.58 0.887207 46.5915 1.7583C49.2838 4.07666 49.9044 7.72632 48.1237 10.8115C48.0564 10.9285 47.9876 11.0442 47.8933 11.2053C51.0883 13.9001 51.2797 17.5188 50.9906 21.3291H33.1796C32.9389 17.3291 32.7562 14.532 36.1881 11.1709C35.4227 9.91968 34.9662 8.57129 34.9941 7.06152C35.0547 3.78101 37.3836 0.928955 40.596 0.261719C40.7493 0.229736 40.8967 0.168701 41.0469 0.121338H43.106ZM39.1242 7.18896C39.1301 8.77588 40.482 10.125 42.0606 10.1194C43.6465 10.1135 44.9891 8.75879 44.9816 7.17188C44.9743 5.57959 43.625 4.23438 42.0435 4.24243C40.4588 4.25049 39.1183 5.60352 39.1242 7.18896ZM37.3194 17.1316H46.7917C46.5303 15.8345 45.8984 14.8345 44.8656 14.113C44.6654 13.9734 44.317 13.9224 44.0767 13.9844C42.7186 14.335 41.3757 14.3533 40.0225 13.969C39.8299 13.9146 39.5518 13.9038 39.3998 14.0042C38.2866 14.738 37.59 15.7622 37.3194 17.1316Z" fill="#131D47"/>
<path d="M0 65.8786C0.250244 65.0783 0.387695 64.2172 0.778076 63.4923C1.31323 62.4994 1.99731 61.5748 2.70642 60.6928C3.0033 60.3229 3.04761 60.1298 2.81653 59.7164C0.510742 55.5924 2.7345 50.4801 7.33606 49.4027C10.2631 48.7177 12.7446 49.609 14.5637 51.9826C16.3839 54.3576 16.5267 56.962 15.1781 59.6381C15.0768 59.839 14.9564 60.0304 14.8199 60.2704C16.2256 61.5153 17.3105 63.0192 17.6354 64.8549C17.9509 66.6376 17.955 68.475 18.105 70.4088H0C0 68.8988 0 67.3888 0 65.8786ZM8.97375 53.3571C7.35071 53.3556 6.04175 54.6471 6.03906 56.2531C6.03662 57.858 7.34802 59.1642 8.96265 59.1654C10.5933 59.1661 11.8906 57.8822 11.8944 56.2638C11.8982 54.6461 10.6044 53.3585 8.97375 53.3571ZM4.22693 66.2506H13.7174C13.4631 64.966 12.8578 63.9486 11.8243 63.224C11.601 63.0673 11.2198 62.9913 10.9575 63.0585C9.62109 63.401 8.30225 63.412 6.9718 63.0463C6.77051 62.9913 6.48438 62.9701 6.32764 63.0719C5.18518 63.8139 4.48779 64.8632 4.22693 66.2506Z" fill="#131D47"/>
<path d="M0 41.305C0.161499 40.7403 0.300293 40.1681 0.488647 39.6122C1.00549 38.0885 1.91638 36.8192 3.08508 35.7486C1.16736 31.5731 1.73975 28.3219 4.77148 26.0374C7.37561 24.075 11.0894 24.2188 13.5796 26.3634C15.8502 28.3182 17.1189 32.0186 14.8187 35.7511C17.9821 38.4234 18.2146 42.0294 17.9011 45.8363C17.7131 45.8521 17.5355 45.8797 17.3579 45.8797C11.7074 45.8819 6.05701 45.8819 0.406616 45.8795C0.27124 45.8792 0.13562 45.8509 0 45.8353C0 44.3253 0 42.8153 0 41.305ZM8.88208 34.6214C10.5427 34.6617 11.8799 33.3812 11.8947 31.7354C11.9088 30.161 10.6212 28.8326 9.05444 28.805C7.42603 28.7765 6.08655 30.0321 6.03943 31.6312C5.99207 33.2354 7.27234 34.5821 8.88208 34.6214ZM13.7098 41.6891C13.463 40.4054 12.839 39.4217 11.8435 38.6966C11.6259 38.5382 11.2463 38.4557 10.9889 38.5221C9.62866 38.8736 8.28687 38.8922 6.93323 38.5038C6.73865 38.4478 6.4563 38.4466 6.29993 38.5497C5.18262 39.2852 4.49927 40.3197 4.22949 41.6891H13.7098Z" fill="#131D47"/>
<path d="M47.2231 35.7421C44.8833 31.9209 46.2603 28.2116 48.5603 26.2873C51.0903 24.1706 54.7808 24.1218 57.4301 26.143C59.7144 27.8857 61.3673 31.7443 58.9751 35.7126C59.3185 36.091 59.6869 36.4604 60.0141 36.863C61.3245 38.4763 62.0483 40.3166 62.0373 42.4067C62.0347 42.9021 62.1822 43.1501 62.6269 43.4038C67.9986 46.4677 70.6173 51.1218 70.2396 57.2849C69.8321 63.9343 64.5058 69.4028 57.8238 70.2841C50.0877 71.3042 42.9265 65.9399 41.7679 58.2153C41.2509 54.7685 41.9514 51.5471 43.7473 48.5544C43.9448 48.2251 44.0563 47.7978 44.0676 47.4118C44.1062 46.0864 44.1187 44.758 44.0752 43.4328C43.9754 40.4087 44.9165 37.821 47.2231 35.7421ZM45.7642 56.0046C45.6753 61.5337 50.2501 66.206 55.8328 66.2873C61.4128 66.3686 66.0951 61.7929 66.1668 56.1884C66.2383 50.5969 61.7232 45.9975 56.0514 45.884C50.497 45.7727 45.8554 50.3391 45.7642 56.0046ZM57.8573 41.8549C57.5827 40.3901 56.9072 39.2985 55.7369 38.5388C55.5818 38.4382 55.2992 38.4545 55.1021 38.5102C53.7478 38.8923 52.4054 38.8791 51.0474 38.5139C50.8066 38.4492 50.4528 38.5156 50.2463 38.6584C48.6693 39.7497 47.8781 41.9777 48.3734 43.8984C51.269 42.1718 54.3817 41.4326 57.8573 41.8549ZM53.1026 34.6237C54.7188 34.615 56.0226 33.3037 56.0117 31.6984C56.0009 30.0947 54.6812 28.7993 53.0639 28.8049C51.4517 28.8103 50.1435 30.1308 50.1591 31.7373C50.1751 33.3593 51.4736 34.6328 53.1026 34.6237Z" fill="#131D47"/>
<path d="M36.9306 35.708C40.2568 39.0319 40.1438 41.7526 39.9486 45.833H22.0364C22.0911 43.9848 21.8671 42.1428 22.3313 40.3239C22.7963 38.5014 23.7772 36.9907 25.1482 35.7441C22.8081 31.8242 24.2605 28.1057 26.5643 26.2338C29.1203 24.1567 32.776 24.1267 35.3872 26.1528C37.6474 27.9067 39.3306 31.6635 36.9306 35.708ZM28.123 31.7365C28.1285 33.3735 29.4035 34.6332 31.0451 34.6235C32.6843 34.6142 33.9343 33.3464 33.9284 31.6987C33.9226 30.0722 32.6373 28.7995 31.0069 28.8054C29.3853 28.8112 28.1175 30.1 28.123 31.7365ZM35.7479 41.7031C35.5121 40.2817 34.7732 39.2482 33.6184 38.5004C33.4829 38.4125 33.224 38.4565 33.0419 38.5085C31.6912 38.893 30.3474 38.895 28.9988 38.5019C28.8333 38.4536 28.6281 38.4145 28.4757 38.4685C27.523 38.8056 26.3533 40.6276 26.3862 41.7031H35.7479Z" fill="#131D47"/>
<path d="M36.8775 60.3025C40.0806 62.9954 40.2227 66.6072 39.961 70.3765H22.1413C21.8324 66.2588 21.9016 63.4087 25.1587 60.2532C23.9316 58.294 23.5887 56.1734 24.346 53.941C24.8615 52.4212 25.8221 51.2178 27.1678 50.3409C29.8711 48.5791 33.3441 48.8599 35.7329 50.9854C37.9275 52.9383 39.1267 56.5955 36.8775 60.3025ZM33.9284 56.2246C33.9187 54.5911 32.6438 53.3465 30.9919 53.3575C29.351 53.3687 28.1129 54.6353 28.1231 56.2928C28.1329 57.9214 29.4149 59.1758 31.0598 59.1656C32.6817 59.1558 33.9381 57.8677 33.9284 56.2246ZM35.7755 66.2683C35.5056 64.8907 34.8355 63.8716 33.7582 63.128C33.596 63.0162 33.3164 62.9624 33.1297 63.0162C31.7347 63.4173 30.3496 63.4344 28.9571 63.0162C28.8122 62.9727 28.6326 62.9561 28.4923 63.0003C27.5371 63.3011 26.3211 65.2063 26.3943 66.2683H35.7755Z" fill="#131D47"/>
<path d="M49.6194 58.1904V54.0308H53.8521V49.7522H58.0342V53.9927H62.2809V58.155H58.0701V62.396H53.8832V58.1904H49.6194Z" fill="#131D47"/>
</svg>
