<svg width="71" height="71" viewBox="0 0 71 71" fill="none" xmlns="http://www.w3.org/2000/svg">
<path d="M0.000976562 53.0485C0.000976562 40.9581 0.000976562 28.868 0.000976562 16.778C0.206299 16.1598 0.351685 15.5135 0.626953 14.9279C2.03809 11.9298 4.45496 10.4655 7.73633 10.3763C8.47766 10.3563 9.22009 10.3737 10.0311 10.3737V0.120972H60.0776V5.20862V10.3734C60.8865 10.3734 61.6118 10.3668 62.3369 10.3744C66.838 10.4227 70.0736 13.6849 70.077 18.1754C70.0784 19.9091 70.0773 21.642 70.0773 23.3754C70.077 32.9767 70.0865 42.5782 70.0712 52.1801C70.0651 55.9574 66.9377 59.3414 63.2095 59.4662C59.5421 59.5887 55.8682 59.528 52.1971 59.5472C51.9281 59.5485 51.6591 59.5475 51.3668 59.5475V66.0712H55.433V70.1571H14.6461V66.0253H18.7283V59.5475C18.4323 59.5475 18.1638 59.5475 17.896 59.5475C14.5922 59.5475 11.288 59.535 7.98413 59.5514C5.25232 59.5648 2.95361 58.6202 1.41125 56.3329C0.756836 55.3622 0.460205 54.1505 0.000976562 53.0485ZM55.8853 45.8915V4.23572H14.1826V45.8915H55.8853ZM4.1062 50.0565C4.1062 50.5502 4.13342 50.9811 4.10168 51.4083C3.93066 53.6964 5.50305 55.4274 8.08618 55.4193C26.0522 55.3641 44.0184 55.3903 61.9849 55.3898C62.2129 55.3898 62.4409 55.3907 62.6688 55.3846C64.1172 55.3461 65.4841 54.3673 65.7892 52.9684C65.9927 52.0341 65.9591 51.0482 66.0339 50.0565H4.1062ZM9.96228 45.8883V14.5502C9.26953 14.5502 8.61157 14.5885 7.95898 14.5433C5.4668 14.3717 4.07678 16.2826 4.08728 18.3795C4.13184 27.2931 4.1062 36.2074 4.1062 45.1215C4.1062 45.3658 4.1062 45.61 4.1062 45.8883H9.96228ZM65.9729 45.8888C65.9729 45.569 65.9727 45.2994 65.9727 45.0297C65.9727 37.0961 65.9729 29.1625 65.9727 21.2291C65.9727 20.1573 65.9879 19.0856 65.9686 18.0143C65.938 16.3197 64.8158 14.8363 63.2539 14.6271C62.2329 14.4904 61.1787 14.6014 60.115 14.6014V45.8888H65.9729ZM22.9137 65.9928H47.1523V59.5968H22.9137V65.9928Z" fill="#131D47"/>
<path d="M39.538 10.4196V14.4943H19.2256V10.4196H39.538Z" fill="#131D47"/>
<path d="M34.285 39.985C32.9309 39.5997 31.6697 39.2408 30.3042 38.8522C32.151 32.3888 33.9869 25.963 35.8472 19.452C37.1965 19.837 38.491 20.2062 39.8302 20.5885C37.9764 27.0729 36.1437 33.4838 34.285 39.985Z" fill="#131D47"/>
<path d="M24.6088 23.1141C25.5565 24.0658 26.499 25.0123 27.4507 25.9677C26.2476 27.1656 25.0077 28.4 23.7341 29.6678C25.0522 30.9769 26.3065 32.2228 27.4928 33.4012C26.4758 34.4227 25.532 35.3712 24.6293 36.278C22.4512 34.0968 20.235 31.8771 18.0325 29.6713C20.186 27.5238 22.3961 25.3204 24.6088 23.1141Z" fill="#131D47"/>
<path d="M51.9811 29.7655C49.8359 31.9113 47.6324 34.1151 45.4766 36.2716C44.5703 35.3654 43.6246 34.4196 42.6096 33.4044C43.7935 32.2477 45.0576 31.0126 46.3726 29.7274C45.0627 28.4276 43.8203 27.1954 42.6172 26.0016C43.5889 25.0306 44.5331 24.0868 45.423 23.1976C47.5842 25.3619 49.7996 27.5807 51.9811 29.7655Z" fill="#131D47"/>
<path d="M43.8706 10.4081H50.8416V14.4918H43.8706V10.4081Z" fill="#131D47"/>
</svg>
