<svg width="61" height="71" viewBox="0 0 61 71" fill="none" xmlns="http://www.w3.org/2000/svg">
<path d="M36.9274 0.121338V4.22485H30.8148V12.5317C37.113 13.0492 42.6891 15.3577 47.4493 19.3987L51.343 15.5117C50.558 14.7653 49.6751 13.9249 48.8546 13.1443C49.9431 12.0425 50.8954 11.0782 51.8176 10.1447C54.6965 13.0253 57.6572 15.9877 60.5882 18.9204C59.6808 19.8267 58.7347 20.7715 57.8026 21.7024C56.7708 20.6553 55.6928 19.5612 54.6738 18.5269C53.2668 19.9348 51.9852 21.2172 50.6386 22.5648C50.8078 22.7759 51.0733 23.1049 51.3369 23.4357C54.9844 28.0143 57.0463 33.2029 57.4702 39.0607C58.3708 51.5131 50.6586 64.7056 37.4831 68.8705C32.7603 70.3635 27.9748 70.515 23.1238 69.5439C18.8006 68.6783 14.8079 67.076 11.2702 64.4231C5.61566 60.183 2.19434 54.5157 0.700439 47.6534C0.425781 46.3911 0.319336 45.0922 0.130371 43.8109C0.101074 43.6102 0.0449219 43.4137 0.000976562 43.2153C0.000976562 41.8928 0.000976562 40.5704 0.000976562 39.2479C0.0432129 39.0988 0.101562 38.9519 0.125488 38.8C0.364014 37.2751 0.477539 35.7192 0.85083 34.2284C3.18896 24.8899 8.79633 18.3362 17.7271 14.687C20.5596 13.5295 23.5314 12.8895 26.5876 12.5433V4.21436H20.379V0.121338H36.9274ZM8.06647 39.2484V43.4169H4.14551C5.01764 56.0577 15.9528 65.3934 26.6522 65.8523V61.9556H30.795V65.9128C43.2171 64.9323 52.5413 54.6151 53.2516 43.3876H49.314V39.2312H53.2939C52.1548 26.0825 41.2435 17.3347 30.7486 16.7761V20.7032H26.6245V16.7719C14.8121 17.5239 4.87079 27.5719 4.15039 39.2484H8.06647Z" fill="#131D47"/>
<path d="M20.4761 53.1318V29.5186C27.3701 33.4587 34.1864 37.3547 41.1309 41.3237C34.2163 45.2766 27.4016 49.1726 20.4761 53.1318ZM24.6632 36.6936V45.9548C27.3773 44.4023 30.0188 42.8909 32.7606 41.3225C30.0094 39.7495 27.3754 38.2439 24.6632 36.6936Z" fill="#131D47"/>
</svg>
