<svg width="24" height="24" viewBox="0 0 24 24" fill="none" xmlns="http://www.w3.org/2000/svg">
<path d="M15.0311 16.895H16.115L9.10126 7.62167H7.93708L15.0311 16.895ZM23.0542 7.31198C22.4234 5.86105 21.5632 4.59364 20.4735 3.51548C19.3839 2.43733 18.1108 1.5771 16.6598 0.946259C15.2089 0.315422 13.649 0 11.9859 0C10.3228 0 8.7629 0.315422 7.31198 0.946259C5.86105 1.5771 4.59364 2.43159 3.51548 3.51548C2.43733 4.59938 1.57709 5.86105 0.946256 7.31198C0.315419 8.7629 0 10.3228 0 11.9859C0 13.649 0.315419 15.2089 0.946256 16.6598C1.57709 18.1108 2.43159 19.3839 3.51548 20.4735C4.59938 21.5632 5.86105 22.4234 7.31198 23.0542C8.7629 23.6851 10.3228 24.0005 11.9859 24.0005C13.649 24.0005 15.2089 23.6851 16.6598 23.0542C18.1108 22.4234 19.3839 21.5632 20.4735 20.4735C21.5632 19.3839 22.4234 18.1108 23.0542 16.6598C23.6851 15.2089 24.0005 13.649 24.0005 11.9859C24.0005 10.3228 23.6851 8.7629 23.0542 7.31198ZM14.4921 18.0649L11.4009 14.0275L7.86826 18.0649H5.90693L10.4891 12.8289L5.64886 6.50909H9.69195L12.4848 10.2024L15.7136 6.50909H17.6749L13.391 11.401L18.4319 18.0649H14.4921Z" fill="white"/>
</svg>
