<svg width="24" height="24" viewBox="0 0 24 24" fill="none" xmlns="http://www.w3.org/2000/svg">
<path d="M14.004 11.7914L11.1964 10.4814C10.9514 10.3677 10.7502 10.4952 10.7502 10.7664V13.234C10.7502 13.5052 10.9514 13.6327 11.1964 13.519L14.0027 12.2089C14.249 12.0939 14.249 11.9064 14.004 11.7914ZM12.0002 0C5.37259 0 0 5.37259 0 12.0002C0 18.6278 5.37259 24.0004 12.0002 24.0004C18.6278 24.0004 24.0004 18.6278 24.0004 12.0002C24.0004 5.37259 18.6278 0 12.0002 0ZM12.0002 16.8753C5.8576 16.8753 5.75009 16.3215 5.75009 12.0002C5.75009 7.67888 5.8576 7.12512 12.0002 7.12512C18.1428 7.12512 18.2503 7.67887 18.2503 12.0002C18.2503 16.3215 18.1428 16.8753 12.0002 16.8753Z" fill="white"/>
</svg>
